<svg height="512" viewBox="0 0 64 64" width="512" xmlns="http://www.w3.org/2000/svg"><g id="music-box-love-song-romance"><path d="m3 49h58v12h-58z" fill="#ffeb99"/><path d="m61 29v20h-58v-20a4 4 0 0 1 4-4h50a4 4 0 0 1 4 4z" fill="#b39a7c"/><path d="m57 49h4v12h-4z" fill="#ebbf00"/><path d="m61 29v20h-4v-20a4 4 0 0 0 -4-4h4a4 4 0 0 1 4 4z" fill="#957856"/><circle cx="49" cy="37" fill="#2488ff" r="8"/><path d="m57 37a8 8 0 0 1 -15.29 3.29 7.867 7.867 0 0 0 3.29.71 8 8 0 0 0 8-8 7.867 7.867 0 0 0 -.71-3.29 7.981 7.981 0 0 1 4.71 7.29z" fill="#005ece"/><circle cx="49" cy="37" fill="#acabb1" r="4"/><path d="m53 37a3.995 3.995 0 0 1 -7.64 1.64 3.931 3.931 0 0 0 1.64.36 4 4 0 0 0 4-4 3.931 3.931 0 0 0 -.36-1.64 3.988 3.988 0 0 1 2.36 3.64z" fill="#787680"/><path d="m44 8v17h-24v-17a2.006 2.006 0 0 1 2-2h20a2.006 2.006 0 0 1 2 2z" fill="#ed539d"/><path d="m44 8v17h-4v-17a2.006 2.006 0 0 0 -2-2h4a2.006 2.006 0 0 1 2 2z" fill="#e4187a"/><rect fill="#00e7f0" height="16" rx="2" width="8" x="28" y="29"/><path d="m36 31v12a2.006 2.006 0 0 1 -2 2h-4a2.006 2.006 0 0 1 -2-2v-1h2a2.006 2.006 0 0 0 2-2v-11h2a2.006 2.006 0 0 1 2 2z" fill="#00b6bd"/><circle cx="15" cy="37" fill="#2488ff" r="8"/><circle cx="15" cy="37" fill="#acabb1" r="4"/><path d="m23 37a8 8 0 0 1 -15.29 3.29 7.867 7.867 0 0 0 3.29.71 8 8 0 0 0 8-8 7.867 7.867 0 0 0 -.71-3.29 7.981 7.981 0 0 1 4.71 7.29z" fill="#005ece"/><path d="m19 37a3.995 3.995 0 0 1 -7.64 1.64 3.931 3.931 0 0 0 1.64.36 4 4 0 0 0 4-4 3.931 3.931 0 0 0 -.36-1.64 3.988 3.988 0 0 1 2.36 3.64z" fill="#787680"/><path d="m57 24h-12v-16a3.009 3.009 0 0 0 -3-3h-20a3.009 3.009 0 0 0 -3 3v16h-12a5 5 0 0 0 -5 5v32a1 1 0 0 0 1 1h58a1 1 0 0 0 1-1v-32a5 5 0 0 0 -5-5zm-36-16a1 1 0 0 1 1-1h20a1 1 0 0 1 1 1v16h-22zm39 52h-56v-10h56zm0-12h-56v-19a3.009 3.009 0 0 1 3-3h50a3.009 3.009 0 0 1 3 3z"/><path d="m36.525 9.149a1 1 0 0 0 -.972-.044l-6 3a1 1 0 0 0 -.553.895v7h-2v2h3a1 1 0 0 0 1-1v-7.382l4-2v6.382h-2v2h3a1 1 0 0 0 1-1v-9a1 1 0 0 0 -.475-.851z"/><path d="m15 46a9 9 0 1 0 -9-9 9.01 9.01 0 0 0 9 9zm0-16a7 7 0 1 1 -7 7 7.009 7.009 0 0 1 7-7z"/><path d="m15 42a5 5 0 1 0 -5-5 5.006 5.006 0 0 0 5 5zm0-8a3 3 0 1 1 -3 3 3 3 0 0 1 3-3z"/><path d="m49 46a9 9 0 1 0 -9-9 9.01 9.01 0 0 0 9 9zm0-16a7 7 0 1 1 -7 7 7.009 7.009 0 0 1 7-7z"/><path d="m49 42a5 5 0 1 0 -5-5 5.006 5.006 0 0 0 5 5zm0-8a3 3 0 1 1 -3 3 3 3 0 0 1 3-3z"/><path d="m30 46h4a3 3 0 0 0 3-3v-12a3 3 0 0 0 -3-3h-4a3 3 0 0 0 -3 3v12a3 3 0 0 0 3 3zm-1-15a1 1 0 0 1 1-1h4a1 1 0 0 1 1 1v12a1 1 0 0 1 -1 1h-4a1 1 0 0 1 -1-1z"/><path d="m60 17h2a15.017 15.017 0 0 0 -15-15v2a13.015 13.015 0 0 1 13 13z"/><path d="m56 17h2a11.013 11.013 0 0 0 -11-11v2a9.01 9.01 0 0 1 9 9z"/><path d="m52 17h2a7.009 7.009 0 0 0 -7-7v2a5.006 5.006 0 0 1 5 5z"/><path d="m17 4v-2a15.017 15.017 0 0 0 -15 15h2a13.015 13.015 0 0 1 13-13z"/><path d="m17 6a11.013 11.013 0 0 0 -11 11h2a9.01 9.01 0 0 1 9-9z"/><path d="m12 17a5.006 5.006 0 0 1 5-5v-2a7.009 7.009 0 0 0 -7 7z"/><path d="m23 9h2v2h-2z"/><path d="m26 9h2v2h-2z"/><path d="m23 12h2v2h-2z"/><path d="m6 56h2v2h-2z"/><path d="m6 52h2v2h-2z"/><path d="m9 56h2v2h-2z"/><path d="m56 56h2v2h-2z"/><path d="m56 52h2v2h-2z"/><path d="m53 56h2v2h-2z"/><path d="m10 52h44v2h-44z"/><path d="m31 32h2v2h-2z"/><path d="m31 36h2v2h-2z"/><path d="m31 40h2v2h-2z"/><path d="m13 56h38v2h-38z"/></g></svg>